<svg width="45" height="49" viewBox="0 0 45 49" fill="none" xmlns="http://www.w3.org/2000/svg">
  <g id="svg1">
    <ellipse cx="7.8002" cy="46.2778" rx="2.6" ry="2.72222" fill="#D9D9D9"/>
    <ellipse cx="12.9999" cy="46.2778" rx="2.6" ry="2.72222" fill="#D9D9D9"/>
    <ellipse cx="18.2001" cy="46.2778" rx="2.6" ry="2.72222" fill="#D9D9D9"/>
    <ellipse cx="23.3998" cy="46.2778" rx="2.6" ry="2.72222" fill="#D9D9D9"/>
    <ellipse cx="7.8002" cy="40.8333" rx="2.6" ry="2.72222" fill="#D9D9D9"/>
    <ellipse cx="18.2001" cy="40.8333" rx="2.6" ry="2.72222" fill="#D9D9D9"/>
    <ellipse cx="12.9999" cy="40.8333" rx="2.6" ry="2.72222" fill="#D9D9D9"/>
    <ellipse cx="23.3998" cy="40.8333" rx="2.6" ry="2.72222" fill="#D9D9D9"/>
    <ellipse cx="2.6" cy="40.8333" rx="2.6" ry="2.72222" fill="#D9D9D9"/>
    <ellipse cx="7.8002" cy="35.3888" rx="2.6" ry="2.72222" fill="#D9D9D9"/>
    <ellipse cx="2.6" cy="35.3888" rx="2.6" ry="2.72222" fill="#D9D9D9"/>
    <ellipse cx="23.3998" cy="35.3888" rx="2.6" ry="2.72222" fill="#D9D9D9"/>
    <ellipse cx="18.2001" cy="35.3888" rx="2.6" ry="2.72222" fill="#D9D9D9"/>
    <ellipse cx="23.3998" cy="29.9444" rx="2.6" ry="2.72222" fill="#D9D9D9"/>
    <ellipse cx="23.3998" cy="13.6111" rx="2.6" ry="2.72222" fill="#D9D9D9"/>
    <ellipse cx="18.2001" cy="29.9444" rx="2.6" ry="2.72222" fill="#D9D9D9"/>
    <ellipse cx="18.2001" cy="13.6111" rx="2.6" ry="2.72222" fill="#D9D9D9"/>
    <ellipse cx="7.8002" cy="29.9444" rx="2.6" ry="2.72222" fill="#D9D9D9"/>
    <ellipse cx="7.8002" cy="13.6111" rx="2.6" ry="2.72222" fill="#D9D9D9"/>
    <ellipse cx="2.6" cy="29.9444" rx="2.6" ry="2.72222" fill="#D9D9D9"/>
    <ellipse cx="2.6" cy="13.6111" rx="2.6" ry="2.72222" fill="#D9D9D9"/>
    <ellipse cx="2.6" cy="24.5001" rx="2.6" ry="2.72222" fill="#D9D9D9"/>
    <ellipse cx="2.6" cy="8.16668" rx="2.6" ry="2.72222" fill="#D9D9D9"/>
    <ellipse cx="23.3998" cy="24.5001" rx="2.6" ry="2.72222" fill="#D9D9D9"/>
    <ellipse cx="23.3998" cy="8.16668" rx="2.6" ry="2.72222" fill="#D9D9D9"/>
    <ellipse cx="23.3998" cy="19.0556" rx="2.6" ry="2.72222" fill="#D9D9D9"/>
    <ellipse cx="12.9999" cy="8.16668" rx="2.6" ry="2.72222" fill="#D9D9D9"/>
    <ellipse cx="18.2001" cy="24.5001" rx="2.6" ry="2.72222" fill="#D9D9D9"/>
    <ellipse cx="18.2001" cy="8.16668" rx="2.6" ry="2.72222" fill="#D9D9D9"/>
    <ellipse cx="7.8002" cy="24.5001" rx="2.6" ry="2.72222" fill="#D9D9D9"/>
    <ellipse cx="7.8002" cy="8.16668" rx="2.6" ry="2.72222" fill="#D9D9D9"/>
    <ellipse cx="18.2001" cy="19.0556" rx="2.6" ry="2.72222" fill="#D9D9D9"/>
    <ellipse cx="18.2001" cy="2.72222" rx="2.6" ry="2.72222" fill="#D9D9D9"/>
    <ellipse cx="12.9999" cy="2.72222" rx="2.6" ry="2.72222" fill="#D9D9D9"/>
    <ellipse cx="7.8002" cy="19.0556" rx="2.6" ry="2.72222" fill="#D9D9D9"/>
    <ellipse cx="7.8002" cy="2.72222" rx="2.6" ry="2.72222" fill="#D9D9D9"/>
    <ellipse cx="2.6" cy="19.0556" rx="2.6" ry="2.72222" fill="#D9D9D9"/>
    <ellipse cx="2.6" cy="2.72222" rx="2.6" ry="2.72222" fill="#D9D9D9"/>
  </g>
  <g id="svg2" transform="translate(26)">
    <circle cx="16" cy="45" r="3" fill="#D9D9D9"/>
    <circle cx="10" cy="39" r="3" fill="#D9D9D9"/>
    <circle cx="16" cy="39" r="3" fill="#D9D9D9"/>
    <circle cx="16" cy="33" r="3" fill="#D9D9D9"/>
    <circle cx="10" cy="33" r="3" fill="#D9D9D9"/>
    <circle cx="16" cy="27" r="3" fill="#D9D9D9"/>
    <circle cx="10" cy="27" r="3" fill="#D9D9D9"/>
    <circle cx="16" cy="21" r="3" fill="#D9D9D9"/>
    <circle cx="10" cy="21" r="3" fill="#D9D9D9"/>
    <circle cx="16" cy="15" r="3" fill="#D9D9D9"/>
    <circle cx="16" cy="9" r="3" fill="#D9D9D9"/>
    <circle cx="10" cy="15" r="3" fill="#D9D9D9"/>
    <circle cx="10" cy="9" r="3" fill="#D9D9D9"/>
    <circle cx="9" cy="3" r="3" fill="#D9D9D9"/>
    <circle cx="3" cy="3" r="3" fill="#D9D9D9"/>
  </g>
</svg>
